<!-- 用户头像SVG图标 -->
<svg width="32" height="32" viewBox="0 0 32 32" fill="none" xmlns="http://www.w3.org/2000/svg">
  <!-- 背景圆形 -->
  <circle cx="16" cy="16" r="16" fill="#4F46E5"/>
  
  <!-- 用户图标 -->
  <path d="M16 8C13.79 8 12 9.79 12 12C12 14.21 13.79 16 16 16C18.21 16 20 14.21 20 12C20 9.79 18.21 8 16 8ZM16 14C14.9 14 14 13.1 14 12C14 10.9 14.9 10 16 10C17.1 10 18 10.9 18 12C18 13.1 17.1 14 16 14Z" fill="white"/>
  <path d="M16 18C12.67 18 8 19.67 8 23V24H24V23C24 19.67 19.33 18 16 18ZM10.34 22C11.18 21.42 13.21 20 16 20C18.79 20 20.82 21.42 21.66 22H10.34Z" fill="white"/>
</svg>